<svg preserveAspectRatio="none" width="100%" height="100%" overflow="visible" style="display: block;" viewBox="0 0 17 17" fill="none" xmlns="http://www.w3.org/2000/svg">
<path id="Icon (Stroke)" d="M13.5326 7.65409C13.5325 4.40777 10.9004 1.77613 7.65409 1.77613C4.40782 1.77622 1.77622 4.40782 1.77613 7.65409C1.77613 10.9004 4.40777 13.5325 7.65409 13.5326C9.24136 13.5326 10.6805 12.9018 11.7381 11.8793C11.7587 11.8536 11.7811 11.8289 11.805 11.805C11.8289 11.7811 11.8536 11.7587 11.8793 11.7381C12.9018 10.6805 13.5326 9.24136 13.5326 7.65409ZM15.3087 7.65409C15.3087 9.44776 14.6907 11.0968 13.6574 12.4017L16.7399 15.4841C17.0867 15.8309 17.0867 16.3931 16.7399 16.7399C16.3931 17.0867 15.8309 17.0867 15.4841 16.7399L12.4017 13.6574C11.0968 14.6907 9.44776 15.3087 7.65409 15.3087C3.42684 15.3086 0 11.8814 0 7.65409C8.91913e-05 3.42689 3.42689 8.91858e-05 7.65409 0C11.8814 0 15.3086 3.42684 15.3087 7.65409Z" fill="var(--fill-0, #1E1E1E)"/>
</svg>
