<svg width="131" height="54" viewBox="0 0 131 54" fill="none" xmlns="http://www.w3.org/2000/svg">
<path d="M23.8947 0C23.3849 0.168125 22.9001 0.382595 22.4424 0.64338C21.1607 1.37286 20.1426 2.39108 19.4159 3.67018C18.6905 4.94679 18.3222 6.43871 18.3222 8.10285C18.3222 9.767 18.6905 11.2146 19.4159 12.4912C20.1426 13.7703 21.1607 14.7886 22.4424 15.518C23.7204 16.2463 25.2104 16.6148 26.8694 16.6148C28.3026 16.6148 29.5944 16.3071 30.7084 15.7017C31.8287 15.0925 32.7168 14.2326 33.3489 13.146C33.9179 12.1695 34.2333 11.031 34.29 9.75817L34.2989 7.50387H27.813V9.98104H31.6294C31.565 10.6814 31.3682 11.3134 31.0402 11.8681C30.6352 12.5533 30.0688 13.0966 29.3585 13.4841C28.6419 13.8742 27.8042 14.0717 26.8681 14.0717C25.7428 14.0717 24.7285 13.8121 23.8529 13.2992C22.9787 12.7876 22.2873 12.0771 21.799 11.1842C21.307 10.2875 21.0585 9.25154 21.0585 8.10285C21.0585 6.95417 21.3109 5.85735 21.8079 4.96956C22.3037 4.08432 22.9951 3.37885 23.8631 2.8748C24.7323 2.36951 25.7428 2.11368 26.8681 2.11368C27.4282 2.11368 27.9947 2.21122 28.551 2.40371C29.1099 2.59747 29.631 2.87482 30.1003 3.22815C30.562 3.57643 30.933 3.97161 31.2017 4.40348L31.4338 4.77588L33.6289 3.26365L33.4031 2.9192C32.9754 2.26824 32.4077 1.68055 31.7139 1.17396C31.0406 0.682287 30.2892 0.287556 29.4814 0H34.8704V16.0778H37.6055V0H43.8484C40.5505 1.1438 38.1771 4.33003 38.1771 8.08133C38.1771 12.7939 41.9214 16.6148 46.5414 16.6148C49.6412 16.6148 52.3468 14.8946 53.7917 12.3391V54H0V0H23.8947Z" fill="#EC1C24"/>
<path d="M46.5414 2.18084C49.7345 2.18085 52.3233 4.8227 52.3233 8.08133C52.3233 11.34 49.7345 13.9818 46.5414 13.9818C43.3483 13.9818 40.7595 11.34 40.7595 8.08133C40.7595 4.82269 43.3483 2.18084 46.5414 2.18084Z" fill="#EC1C24"/>
<path d="M53.7917 0V3.82355C52.7861 2.04491 51.1697 0.671007 49.2347 0H53.7917Z" fill="#EC1C24"/>
<path d="M59.2825 36.5289L63.0027 27.2686H64.5591L68.2793 36.5289H66.8748L65.9637 34.2932H61.5602L60.6618 36.5289H59.2825ZM62.0031 33.1627H65.5335L64.3314 30.0378C64.2301 29.7668 64.1289 29.5043 64.0277 29.2503C63.9349 28.9962 63.8505 28.7379 63.7746 28.4754C63.6987 28.7379 63.6101 28.9962 63.5089 29.2503C63.4076 29.5043 63.3064 29.7668 63.2052 30.0378L62.0031 33.1627Z" fill="black"/>
<path d="M68.9562 36.5289V29.3519H70.1204L70.1963 30.4062C70.3819 30.0421 70.6181 29.7626 70.9049 29.5678C71.2002 29.373 71.5376 29.2757 71.9172 29.2757C72.1787 29.2757 72.3727 29.3011 72.4993 29.3519V30.584H72.4107C72.3432 30.5586 72.2631 30.5417 72.1703 30.5332C72.0859 30.5163 72.0016 30.5078 71.9172 30.5078C71.4364 30.5078 71.0483 30.656 70.7531 30.9524C70.4662 31.2488 70.3017 31.6468 70.2596 32.1465V36.5289H68.9562Z" fill="black"/>
<path d="M75.8202 36.6433C75.1369 36.6433 74.5422 36.4908 74.036 36.186C73.5299 35.8726 73.1376 35.4407 72.8592 34.8903C72.5808 34.3314 72.4416 33.6793 72.4416 32.9341C72.4416 32.1804 72.5808 31.5283 72.8592 30.9778C73.146 30.4189 73.5425 29.987 74.0487 29.6821C74.5633 29.3773 75.1622 29.2248 75.8455 29.2248C76.4023 29.2248 76.8915 29.3265 77.3133 29.5297C77.7436 29.733 78.0937 30.0209 78.3636 30.3935C78.6336 30.7576 78.7981 31.1938 78.8571 31.7019L77.5917 31.8543C77.5327 31.3716 77.3429 31.0032 77.0223 30.7492C76.7017 30.4867 76.2968 30.3554 75.8075 30.3554C75.1833 30.3554 74.6856 30.584 74.3144 31.0413C73.9517 31.4986 73.7703 32.1295 73.7703 32.9341C73.7703 33.7301 73.9517 34.361 74.3144 34.8268C74.6771 35.2841 75.1749 35.5127 75.8075 35.5127C76.3053 35.5127 76.7102 35.3857 77.0223 35.1316C77.3429 34.8691 77.5327 34.505 77.5917 34.0392L78.8571 34.1916C78.7981 34.6828 78.6336 35.1147 78.3636 35.4873C78.0937 35.8515 77.7436 36.1352 77.3133 36.3384C76.8831 36.5416 76.3854 36.6433 75.8202 36.6433Z" fill="black"/>
<path d="M79.8563 36.5289V26.4938H81.1596V30.3808C81.4548 29.9828 81.7881 29.6906 82.1592 29.5043C82.5389 29.318 82.9691 29.2248 83.4499 29.2248C84.167 29.2248 84.7533 29.4323 85.2088 29.8473C85.6728 30.2538 85.9048 30.8804 85.9048 31.7273V36.5289H84.6141V31.8543C84.6141 31.4055 84.4875 31.0498 84.2345 30.7873C83.9814 30.5248 83.5976 30.3935 83.083 30.3935C82.7371 30.3935 82.4165 30.4697 82.1213 30.6222C81.826 30.7661 81.5898 30.9778 81.4127 31.2573C81.244 31.5368 81.1596 31.8713 81.1596 32.2608V36.5289H79.8563Z" fill="black"/>
<path d="M87.3823 36.5289V29.3519H88.673V36.5289H87.3823ZM87.3823 28.2467V26.4683H88.673V28.2467H87.3823Z" fill="black"/>
<path d="M91.756 36.6179C91.2836 36.6179 90.9209 36.5162 90.6678 36.313C90.4232 36.1013 90.3009 35.8006 90.3009 35.4111V30.3681H89.3518V29.3519H90.3009V27.4338H91.5662V29.3519H92.7177V30.3681H91.5662V34.8776C91.5662 35.1401 91.6042 35.3137 91.6801 35.3984C91.7645 35.4831 91.9247 35.5254 92.161 35.5254C92.4056 35.5254 92.5912 35.5085 92.7177 35.4746V36.5162C92.5321 36.5501 92.3592 36.5755 92.1989 36.5924C92.0386 36.6094 91.891 36.6179 91.756 36.6179Z" fill="black"/>
<path d="M96.471 36.656C95.8046 36.656 95.2141 36.512 94.6995 36.2241C94.1934 35.9277 93.7969 35.5042 93.5101 34.9538C93.2317 34.3949 93.0925 33.7259 93.0925 32.9468C93.0925 32.1931 93.2232 31.541 93.4848 30.9905C93.7547 30.4316 94.1343 29.9997 94.6236 29.6948C95.1213 29.3815 95.7076 29.2248 96.3825 29.2248C97.108 29.2248 97.7195 29.3985 98.2173 29.7457C98.715 30.0844 99.0819 30.5586 99.3181 31.1684C99.5628 31.7696 99.6598 32.4683 99.6092 33.2643H94.4211C94.4211 34.035 94.6109 34.6151 94.9906 35.0046C95.3786 35.3857 95.8805 35.5762 96.4963 35.5762C96.9941 35.5762 97.4032 35.4619 97.7238 35.2333C98.0528 35.0046 98.2805 34.6997 98.4071 34.3187L99.5586 34.5854C99.4489 35.0004 99.2507 35.3645 98.9638 35.6779C98.6855 35.9912 98.3354 36.2325 97.9136 36.4019C97.5002 36.5713 97.0194 36.656 96.471 36.656ZM94.4211 32.337H98.2805C98.2721 31.7104 98.0949 31.2065 97.7491 30.8254C97.4032 30.4443 96.9392 30.2538 96.3572 30.2538C95.8173 30.2538 95.3659 30.4316 95.0032 30.7873C94.6405 31.143 94.4464 31.6595 94.4211 32.337Z" fill="black"/>
<path d="M103.676 36.6433C102.992 36.6433 102.398 36.4908 101.892 36.186C101.385 35.8726 100.993 35.4407 100.715 34.8903C100.436 34.3314 100.297 33.6793 100.297 32.9341C100.297 32.1804 100.436 31.5283 100.715 30.9778C101.002 30.4189 101.398 29.987 101.904 29.6821C102.419 29.3773 103.018 29.2248 103.701 29.2248C104.258 29.2248 104.747 29.3265 105.169 29.5297C105.599 29.733 105.949 30.0209 106.219 30.3935C106.489 30.7576 106.654 31.1938 106.713 31.7019L105.447 31.8543C105.388 31.3716 105.198 31.0032 104.878 30.7492C104.557 30.4867 104.152 30.3554 103.663 30.3554C103.039 30.3554 102.541 30.584 102.17 31.0413C101.807 31.4986 101.626 32.1295 101.626 32.9341C101.626 33.7301 101.807 34.361 102.17 34.8268C102.533 35.2841 103.03 35.5127 103.663 35.5127C104.161 35.5127 104.566 35.3857 104.878 35.1316C105.198 34.8691 105.388 34.505 105.447 34.0392L106.713 34.1916C106.654 34.6828 106.489 35.1147 106.219 35.4873C105.949 35.8515 105.599 36.1352 105.169 36.3384C104.739 36.5416 104.241 36.6433 103.676 36.6433Z" fill="black"/>
<path d="M109.268 36.6179C108.795 36.6179 108.433 36.5162 108.179 36.313C107.935 36.1013 107.812 35.8006 107.812 35.4111V30.3681H106.863V29.3519H107.812V27.4338H109.078V29.3519H110.229V30.3681H109.078V34.8776C109.078 35.1401 109.116 35.3137 109.192 35.3984C109.276 35.4831 109.436 35.5254 109.673 35.5254C109.917 35.5254 110.103 35.5085 110.229 35.4746V36.5162C110.044 36.5501 109.871 36.5755 109.711 36.5924C109.55 36.6094 109.403 36.6179 109.268 36.6179Z" fill="black"/>
<path d="M117.02 29.3519V36.5289H115.817L115.754 35.4492C115.535 35.8218 115.227 36.1182 114.83 36.3384C114.442 36.5501 114.021 36.656 113.565 36.656C112.747 36.656 112.123 36.4358 111.692 35.9954C111.262 35.5466 111.047 34.9538 111.047 34.217V29.3519H112.35V34.1027C112.35 34.5431 112.485 34.886 112.755 35.1316C113.025 35.3688 113.384 35.4873 113.831 35.4873C114.21 35.4873 114.539 35.4111 114.818 35.2587C115.105 35.1062 115.324 34.8987 115.476 34.6362C115.636 34.3652 115.716 34.0519 115.716 33.6962V29.3519H117.02Z" fill="black"/>
<path d="M118.525 36.5289V29.3519H119.69L119.765 30.4062C119.951 30.0421 120.187 29.7626 120.474 29.5678C120.769 29.373 121.107 29.2757 121.486 29.2757C121.748 29.2757 121.942 29.3011 122.068 29.3519V30.584H121.98C121.912 30.5586 121.832 30.5417 121.739 30.5332C121.655 30.5163 121.571 30.5078 121.486 30.5078C121.006 30.5078 120.617 30.656 120.322 30.9524C120.035 31.2488 119.871 31.6468 119.829 32.1465V36.5289H118.525Z" fill="black"/>
<path d="M124.413 36.656C123.671 36.656 123.093 36.4739 122.68 36.1097C122.275 35.7371 122.072 35.2544 122.072 34.6616C122.072 34.1959 122.174 33.8148 122.376 33.5184C122.578 33.222 122.853 32.9891 123.198 32.8197C123.544 32.6419 123.932 32.5149 124.363 32.4386L125.856 32.1592C126.227 32.0914 126.472 31.9898 126.59 31.8543C126.716 31.7188 126.779 31.5325 126.779 31.2954C126.779 30.9905 126.674 30.7407 126.463 30.5459C126.252 30.3427 125.868 30.2411 125.312 30.2411C124.789 30.2411 124.363 30.3469 124.034 30.5586C123.705 30.7704 123.544 31.1006 123.553 31.5495L122.325 31.4224C122.342 30.7195 122.621 30.1776 123.16 29.7965C123.7 29.4154 124.417 29.2248 125.312 29.2248C126.197 29.2248 126.876 29.4027 127.349 29.7584C127.83 30.114 128.07 30.656 128.07 31.3843V35.0173C128.07 35.2714 128.117 35.4365 128.209 35.5127C128.302 35.5889 128.403 35.627 128.513 35.627C128.581 35.627 128.631 35.627 128.665 35.627C128.699 35.6186 128.72 35.6101 128.728 35.6016H128.804V36.5289C128.72 36.5628 128.606 36.5882 128.462 36.6052C128.327 36.6221 128.226 36.6306 128.159 36.6306C127.796 36.6306 127.501 36.5374 127.273 36.3511C127.054 36.1648 126.944 35.8557 126.944 35.4238V35.2714H127.045C126.86 35.6863 126.522 36.0208 126.033 36.2749C125.552 36.5289 125.012 36.656 124.413 36.656ZM124.742 35.6143C125.257 35.6143 125.695 35.5042 126.058 35.2841C126.421 35.0639 126.666 34.759 126.792 34.3695V32.8578C126.716 32.9171 126.594 32.9679 126.425 33.0103C126.256 33.0526 126.033 33.1034 125.755 33.1627L124.704 33.3787C124.181 33.4887 123.831 33.6539 123.654 33.8741C123.485 34.0858 123.401 34.3144 123.401 34.56C123.401 34.9242 123.527 35.1909 123.781 35.3603C124.042 35.5297 124.363 35.6143 124.742 35.6143Z" fill="black"/>
<path d="M129.709 36.5289V26.4938H131V36.5289H129.709Z" fill="black"/>
<path d="M59.4217 41.14V39.9714H67.1405V41.14H63.9644V49.2317H62.6358V41.14H59.4217Z" fill="black"/>
<path d="M67.8194 49.2317V42.0546H69.11V49.2317H67.8194ZM67.8194 40.9495V39.1711H69.11V40.9495H67.8194Z" fill="black"/>
<path d="M70.6123 49.2317V39.1965H71.903V49.2317H70.6123Z" fill="black"/>
<path d="M76.3026 49.3587C75.6362 49.3587 75.0457 49.2148 74.5311 48.9268C74.0249 48.6304 73.6285 48.207 73.3416 47.6566C73.0633 47.0976 72.9241 46.4286 72.9241 45.6495C72.9241 44.8958 73.0548 44.2437 73.3163 43.6933C73.5863 43.1344 73.9659 42.7025 74.4552 42.3976C74.9529 42.0843 75.5392 41.9276 76.214 41.9276C76.9395 41.9276 77.5511 42.1012 78.0488 42.4484C78.5466 42.7872 78.9135 43.2614 79.1497 43.8711C79.3944 44.4724 79.4914 45.171 79.4408 45.9671H74.2527C74.2527 46.7377 74.4425 47.3178 74.8221 47.7074C75.2102 48.0884 75.7121 48.279 76.3279 48.279C76.8256 48.279 77.2348 48.1647 77.5553 47.936C77.8843 47.7074 78.1121 47.4025 78.2387 47.0214L79.3901 47.2882C79.2805 47.7031 79.0822 48.0673 78.7954 48.3806C78.517 48.6939 78.1669 48.9353 77.7452 49.1047C77.3318 49.274 76.851 49.3587 76.3026 49.3587ZM74.2527 45.0398H78.1121C78.1037 44.4131 77.9265 43.9092 77.5807 43.5282C77.2348 43.1471 76.7708 42.9565 76.1887 42.9565C75.6488 42.9565 75.1975 43.1344 74.8348 43.4901C74.472 43.8457 74.278 44.3623 74.2527 45.0398Z" fill="black"/>
<path d="M85.3875 49.346C84.7717 49.346 84.236 49.2359 83.7805 49.0157C83.325 48.7956 82.9749 48.4907 82.7302 48.1012C82.4856 47.7031 82.3633 47.2501 82.3633 46.742C82.3633 46.1576 82.5362 45.6241 82.8821 45.1414C83.228 44.6502 83.7299 44.2692 84.3879 43.9982C84.1264 43.6848 83.9281 43.363 83.7932 43.0327C83.6666 42.694 83.6034 42.3891 83.6034 42.1182C83.6034 41.6693 83.7046 41.2755 83.907 40.9368C84.1179 40.5896 84.4048 40.3228 84.7675 40.1365C85.1302 39.9417 85.5436 39.8444 86.0076 39.8444C86.4715 39.8444 86.8807 39.929 87.235 40.0984C87.5893 40.2678 87.8677 40.5091 88.0701 40.8225C88.281 41.1358 88.3865 41.5084 88.3865 41.9403C88.3865 42.3976 88.2304 42.838 87.9183 43.2614C87.6062 43.6848 87.0831 44.0532 86.3492 44.3665L88.184 46.3228C88.3021 46.0348 88.3823 45.7469 88.4244 45.459C88.475 45.1626 88.5088 44.8535 88.5257 44.5317L89.7151 44.6333C89.6898 45.0821 89.6181 45.5394 89.5 46.0052C89.3819 46.4625 89.2174 46.8605 89.0065 47.1993L90.9425 49.2317H89.3229L88.2346 48.0884C87.8381 48.5542 87.391 48.8803 86.8933 49.0666C86.404 49.2529 85.9021 49.346 85.3875 49.346ZM85.4761 48.2409C85.8979 48.2409 86.2733 48.1562 86.6023 47.9868C86.9397 47.809 87.2181 47.5634 87.4374 47.2501L85.0712 44.773C84.6578 44.9593 84.3288 45.2134 84.0842 45.5352C83.8396 45.857 83.7172 46.2296 83.7172 46.653C83.7172 47.1273 83.8817 47.5126 84.2107 47.809C84.5397 48.0969 84.9615 48.2409 85.4761 48.2409ZM85.7039 43.6933C86.2269 43.4308 86.6023 43.1682 86.8301 42.9057C87.0578 42.6347 87.1717 42.3426 87.1717 42.0292C87.1717 41.682 87.062 41.4068 86.8427 41.2036C86.6318 41.0003 86.3534 40.8987 86.0076 40.8987C85.6617 40.8987 85.3833 41.0045 85.1724 41.2163C84.97 41.428 84.8687 41.7032 84.8687 42.0419C84.8687 42.2791 84.932 42.5331 85.0585 42.8041C85.1851 43.0751 85.4002 43.3715 85.7039 43.6933Z" fill="black"/>
<path d="M97.1448 49.3587C96.4108 49.3587 95.7781 49.2317 95.2467 48.9776C94.7237 48.7236 94.3187 48.3679 94.0319 47.9106C93.7451 47.4533 93.5933 46.924 93.5764 46.3228L94.8797 46.1703C94.905 46.8393 95.1202 47.3517 95.5251 47.7074C95.9384 48.063 96.491 48.2409 97.1827 48.2409C97.8407 48.2409 98.3511 48.1012 98.7138 47.8217C99.0766 47.5338 99.2579 47.1569 99.2579 46.6911C99.2579 46.3185 99.1567 46.0348 98.9542 45.8401C98.7518 45.6368 98.4861 45.4844 98.1571 45.3828C97.8281 45.2727 97.4653 45.1753 97.0688 45.0906C96.5289 44.972 96.0565 44.8365 95.6516 44.6841C95.2551 44.5317 94.9219 44.3538 94.652 44.1506C94.3905 43.9389 94.1922 43.6891 94.0572 43.4011C93.9307 43.1132 93.8674 42.7787 93.8674 42.3976C93.8674 41.8895 93.9982 41.4449 94.2597 41.0638C94.5296 40.6827 94.905 40.3863 95.3859 40.1746C95.8752 39.9544 96.4404 39.8444 97.0815 39.8444C97.7901 39.8444 98.3848 39.9587 98.8657 40.1873C99.3549 40.4075 99.7346 40.7251 100.005 41.14C100.283 41.555 100.452 42.0462 100.511 42.6136L99.1947 42.766C99.1609 42.1901 98.9585 41.7455 98.5873 41.4322C98.2161 41.1189 97.7142 40.9622 97.0815 40.9622C96.491 40.9622 96.0354 41.0892 95.7149 41.3433C95.4028 41.5889 95.2467 41.9107 95.2467 42.3087C95.2467 42.6474 95.3437 42.9142 95.5377 43.109C95.7318 43.3037 96.0101 43.4646 96.3729 43.5917C96.7441 43.7102 97.1827 43.8246 97.6889 43.9346C98.0685 44.0109 98.4354 44.1083 98.7897 44.2268C99.1441 44.3454 99.4604 44.502 99.7388 44.6968C100.026 44.8916 100.249 45.1456 100.409 45.459C100.578 45.7723 100.663 46.1576 100.663 46.6149C100.663 47.1654 100.515 47.6481 100.22 48.063C99.9244 48.478 99.511 48.7998 98.9796 49.0285C98.4565 49.2486 97.8449 49.3587 97.1448 49.3587Z" fill="black"/>
<path d="M103.509 49.3206C103.037 49.3206 102.674 49.219 102.421 49.0157C102.176 48.804 102.054 48.5034 102.054 48.1139V43.0709H101.105V42.0546H102.054V40.1365H103.319V42.0546H104.471V43.0709H103.319V47.5803C103.319 47.8429 103.357 48.0165 103.433 48.1012C103.518 48.1858 103.678 48.2282 103.914 48.2282C104.159 48.2282 104.344 48.2112 104.471 48.1774V49.219C104.285 49.2529 104.112 49.2783 103.952 49.2952C103.792 49.3121 103.644 49.3206 103.509 49.3206Z" fill="black"/>
<path d="M104.846 45.6622C104.846 44.9085 104.985 44.2522 105.263 43.6933C105.55 43.1344 105.947 42.7025 106.453 42.3976C106.967 42.0843 107.566 41.9276 108.25 41.9276C108.933 41.9276 109.528 42.0843 110.034 42.3976C110.54 42.7025 110.932 43.1344 111.211 43.6933C111.489 44.2437 111.628 44.8958 111.628 45.6495C111.628 46.3947 111.489 47.0468 111.211 47.6057C110.932 48.1647 110.54 48.5966 110.034 48.9014C109.528 49.2063 108.933 49.3587 108.25 49.3587C107.558 49.3587 106.955 49.2063 106.44 48.9014C105.934 48.5881 105.542 48.1562 105.263 47.6057C104.985 47.0468 104.846 46.399 104.846 45.6622ZM106.149 45.6495C106.149 46.471 106.33 47.1103 106.693 47.5676C107.064 48.0165 107.579 48.2409 108.237 48.2409C108.895 48.2409 109.405 48.0122 109.768 47.5549C110.139 47.0976 110.325 46.4583 110.325 45.6368C110.325 44.8069 110.139 44.1675 109.768 43.7187C109.405 43.2699 108.899 43.0455 108.25 43.0455C107.583 43.0455 107.064 43.2783 106.693 43.7441C106.33 44.2014 106.149 44.8365 106.149 45.6495Z" fill="black"/>
<path d="M112.656 49.2317V42.0546H113.845L113.921 43.1344C114.225 42.7194 114.566 42.4146 114.946 42.2198C115.326 42.025 115.76 41.9276 116.249 41.9276C116.966 41.9276 117.553 42.1351 118.008 42.55C118.472 42.9565 118.704 43.5832 118.704 44.4301V49.2317H117.414V44.5571C117.414 44.1083 117.287 43.7526 117.034 43.4901C116.781 43.2275 116.397 43.0963 115.882 43.0963C115.537 43.0963 115.216 43.1725 114.921 43.3249C114.625 43.4689 114.389 43.6806 114.212 43.9601C114.043 44.2395 113.959 44.574 113.959 44.9636V49.2317H112.656Z" fill="black"/>
<path d="M123.103 49.3587C122.437 49.3587 121.846 49.2148 121.332 48.9268C120.826 48.6304 120.429 48.207 120.142 47.6566C119.864 47.0976 119.725 46.4286 119.725 45.6495C119.725 44.8958 119.855 44.2437 120.117 43.6933C120.387 43.1344 120.767 42.7025 121.256 42.3976C121.754 42.0843 122.34 41.9276 123.015 41.9276C123.74 41.9276 124.352 42.1012 124.849 42.4484C125.347 42.7872 125.714 43.2614 125.95 43.8711C126.195 44.4724 126.292 45.171 126.241 45.9671H121.053C121.053 46.7377 121.243 47.3178 121.623 47.7074C122.011 48.0884 122.513 48.279 123.129 48.279C123.626 48.279 124.035 48.1647 124.356 47.936C124.685 47.7074 124.913 47.4025 125.039 47.0214L126.191 47.2882C126.081 47.7031 125.883 48.0673 125.596 48.3806C125.318 48.6939 124.968 48.9353 124.546 49.1047C124.132 49.274 123.652 49.3587 123.103 49.3587ZM121.053 45.0398H124.913C124.904 44.4131 124.727 43.9092 124.381 43.5282C124.035 43.1471 123.571 42.9565 122.989 42.9565C122.449 42.9565 121.998 43.1344 121.635 43.4901C121.273 43.8457 121.079 44.3623 121.053 45.0398Z" fill="black"/>
</svg>
